<?xml version="1.0" standalone="no"?><!DOCTYPE svg PUBLIC "-//W3C//DTD SVG 1.1//EN" "http://www.w3.org/Graphics/SVG/1.1/DTD/svg11.dtd"><svg t="1733708938484" class="icon" viewBox="0 0 1025 1024" version="1.1" xmlns="http://www.w3.org/2000/svg" p-id="13014" xmlns:xlink="http://www.w3.org/1999/xlink" width="64.0625" height="64"><path d="M908.665 50.338l97.388 97.387a65.86 65.86 0 0 1 0 93.13l-105.85 105.85-190.571-190.518 105.85-105.85a65.86 65.86 0 0 1 93.183 0z m-685.972 0l51.2 51.2-71.896 72.003a32.93 32.93 0 0 0 0 46.565l24.576 24.576a32.93 32.93 0 0 0 46.566 0l72.003-72.003 97.765 97.873-190.572 190.517-220.16-220.213a65.86 65.86 0 0 1 0-93.13l97.388-97.388a65.86 65.86 0 0 1 93.13 0zM747.736 575.38l97.819 97.82-71.95 71.949a32.93 32.93 0 0 0 0 46.619l24.522 24.522a32.93 32.93 0 0 0 46.62 0l71.949-71.95 51.2 51.2a65.86 65.86 0 0 1 0 93.184l-97.334 97.388a65.86 65.86 0 0 1-93.184 0L557.272 765.844l190.517-190.518z m-76.208-381.09L862.1 384.809 290.17 956.74c-8.57 8.57-19.241 14.552-30.99 17.462L88.172 1015.97a39.505 39.505 0 0 1-47.75-47.805l41.767-171.008a65.923 65.923 0 0 1 17.408-30.936l571.931-571.93z" fill="#1296db" p-id="13015"></path></svg>