<?xml version="1.0" standalone="no"?><!DOCTYPE svg PUBLIC "-//W3C//DTD SVG 1.1//EN" "http://www.w3.org/Graphics/SVG/1.1/DTD/svg11.dtd"><svg t="1733708879315" class="icon" viewBox="0 0 1207 1024" version="1.1" xmlns="http://www.w3.org/2000/svg" p-id="7726" xmlns:xlink="http://www.w3.org/1999/xlink" width="75.4375" height="64"><path d="M688.289477 0C462.221785 0 264.064656 142.414769 193.277374 350.654359l-24.549743 58.026667a205.745231 205.745231 0 0 0-2.835693 7.010461L8.721067 828.78359c-4.699897 12.340513-7.509333 25.258667-8.402052 38.386872-4.936205 74.358154 52.512821 138.555077 128.341334 143.412512l202.988307 12.970667c4.621128 0.288821 9.216 0.446359 13.837129 0.446359h343.355077c162.579692-0.472615 261.618872-16.357744 330.725743-66.507487 108.17641-78.506667 176.626872-230.820103 188.100923-397.994667L1207.825067 556.635897l-313.921641 35.341129-0.157539 0.446359a115.34441 115.34441 0 0 1-88.851692 70.209641l-4.726154 0.65641c-63.461744 7.614359-121.225846-36.627692-129.024-98.855385-7.798154-62.227692 37.336615-118.889026 100.824615-126.529641a116.841026 116.841026 0 0 1 106.128411 43.769436l0.682666 0.918975L1205.199426 446.253949l-0.36759-3.15077C1171.144862 193.90359 955.317169 3.938462 696.297682 0.052513L688.289477 0z" p-id="7727"></path></svg>