<?xml version="1.0" standalone="no"?><!DOCTYPE svg PUBLIC "-//W3C//DTD SVG 1.1//EN" "http://www.w3.org/Graphics/SVG/1.1/DTD/svg11.dtd"><svg t="1733719696504" class="icon" viewBox="0 0 1024 1024" version="1.1" xmlns="http://www.w3.org/2000/svg" p-id="32177" xmlns:xlink="http://www.w3.org/1999/xlink" width="64" height="64"><path d="M302.933333 514.844444c2.844444 105.244444-17.066667 240.355556-36.977777 339.911112 0 18.488889-22.755556 28.444444-69.688889 28.444444h-7.111111c-2.844444 5.688889-1.422222 8.533333 4.266666 8.533333 25.6 12.8 38.4 41.244444 38.4 81.066667-2.844444 5.688889-2.844444 9.955556 0 12.8 5.688889 2.844444 9.955556 2.844444 15.644445 0 56.888889-41.244444 95.288889-88.177778 115.2-142.222222 31.288889-152.177778 29.866667-304.355556-4.266667-459.377778-9.955556-45.511111-32.711111-98.133333-69.688889-153.6 45.511111-48.355556 82.488889-89.6 110.933333-122.311111l18.488889-15.644445c8.533333-7.111111 8.533333-11.377778 1.422223-17.066666L345.6 14.222222c-28.444444 62.577778-58.311111 116.622222-92.444444 162.133334-28.444444-38.4-62.577778-75.377778-103.822223-113.777778-5.688889 0-8.533333 1.422222-11.377777 4.266666 0 2.844444 1.422222 5.688889 4.266666 8.533334 32.711111 42.666667 61.155556 92.444444 83.911111 146.488889-48.355556 65.422222-103.822222 132.266667-164.977777 203.377777-5.688889 14.222222-2.844444 15.644444 7.111111 8.533334 32.711111-27.022222 76.8-65.422222 130.844444-113.777778 19.911111-21.333333 35.555556-36.977778 45.511111-44.088889 12.8 42.666667 22.755556 89.6 31.288889 137.955556-65.422222 142.222222-135.111111 261.688889-206.222222 359.822222-2.844444 5.688889-4.266667 9.955556-4.266667 12.8 2.844444 2.844444 5.688889 2.844444 11.377778 0 156.444444-160.711111 226.133333-271.644444 226.133333-271.644445zM460.8 469.333333v348.444445l-11.377778 166.4c2.844444 12.8 5.688889 19.911111 11.377778 19.911111 2.844444 0 8.533333-7.111111 18.488889-19.911111 32.711111-51.2 48.355556-92.444444 45.511111-122.311111v-105.244445l187.733333-8.533333c5.688889-2.844444 7.111111-7.111111 7.111111-12.8-2.844444-5.688889-7.111111-8.533333-11.377777-8.533333l-184.888889 8.533333 4.266666-100.977778 183.466667-7.111111c5.688889-2.844444 7.111111-7.111111 7.111111-12.8s-4.266667-8.533333-11.377778-8.533333l-176.355555 8.533333 4.266667-85.333333 207.644444-12.8 7.111111 365.511111c2.844444 32.711111-12.8 46.933333-45.511111 44.088889-2.844444-2.844444-4.266667-1.422222-4.266667 4.266666 0 2.844444 1.422222 5.688889 4.266667 8.533334 15.644444 8.533333 24.177778 28.444444 27.022222 61.155555 0 8.533333 5.688889 11.377778 15.644445 8.533334 71.111111-48.355556 103.822222-110.933333 95.288889-186.311112L833.422222 554.666667l22.755556-36.977778c5.688889-5.688889 5.688889-9.955556 0-12.8l-81.066667-52.622222-32.711111 45.511111-210.488889 12.8-71.111111-41.244445z m126.577778-285.866666v96.711111H428.088889l34.133333 31.288889c12.8-2.844444 42.666667-11.377778 51.2-9.955556h75.377778V398.222222H364.088889l35.555555 39.822222c21.333333-5.688889 27.022222-17.066667 49.777778-18.488888 17.066667-1.422222 41.244444 0 54.044445 0h459.377777c2.844444 0 0-4.266667 2.844445-7.111112l-4.266667-8.533333-69.688889-61.155555-46.933333 54.044444H662.755556v-96.711111h192c7.111111 0 7.111111-9.955556 1.422222-14.222222l-54.044445-56.888889-44.088889 49.777778h-96.711111v-96.711112h224.711111c7.111111 0 9.955556-5.688889 4.266667-11.377777L839.111111 89.6l-48.355555 72.533333h-128V98.133333c2.844444-18.488889 9.955556-27.022222 17.066666-35.555555 5.688889-8.533333 4.266667-14.222222-4.266666-15.644445l-88.177778-22.755555v139.377778s-204.8-1.422222-203.377778 0c4.266667 2.844444 32.711111 29.866667 32.711111 32.711111 12.8-1.422222 19.911111-7.111111 32.711111-11.377778 7.111111-1.422222 18.488889 0 32.711111 0h105.244445z" p-id="32178"></path></svg>