<?xml version="1.0" standalone="no"?><!DOCTYPE svg PUBLIC "-//W3C//DTD SVG 1.1//EN" "http://www.w3.org/Graphics/SVG/1.1/DTD/svg11.dtd"><svg t="1733708836106" class="icon" viewBox="0 0 1228 1024" version="1.1" xmlns="http://www.w3.org/2000/svg" p-id="4777" xmlns:xlink="http://www.w3.org/1999/xlink" width="76.75" height="64"><path d="M401.152 796.5184V391.68H341.6576c-25.344 32.6656-62.464 54.272-111.2576 64.768v47.2576h9.984c23.3472 0 38.4 1.6384 45.1584 4.864a21.0944 21.0944 0 0 1 12.3392 14.336c1.536 6.4 2.2528 25.1904 2.2528 56.5248v217.0368h101.0176zM1005.568 796.5184v-69.0176h-110.6944c56.6784-83.8144 90.7776-138.6496 102.4-164.5056 11.52-25.8048 17.3568-50.3296 17.3568-73.472 0-30.5152-10.2912-55.7568-30.8736-75.6736-20.5824-19.9168-50.9952-29.8496-91.136-29.8496-20.48 0-38.0928 3.2256-52.736 9.728a86.528 86.528 0 0 0-35.7888 28.7744 94.1056 94.1056 0 0 0-17.2544 38.6048 321.024 321.024 0 0 0-3.4816 53.6576v14.7456h90.5216V491.008c0-17.8176 1.8432-29.7472 5.632-35.7376a18.8416 18.8416 0 0 1 17.1008-9.0112c7.68 0 13.3632 2.7136 17.1008 8.1408 3.7888 5.376 5.632 13.6192 5.632 24.576 0 14.336-6.1952 34.304-18.6368 59.904-12.3904 25.6-51.5072 92.16-117.3504 199.8848v57.7536h222.208z" fill="#1296db" p-id="4778"></path><path d="M256 0v76.8a25.6 25.6 0 0 0 25.6 25.6h102.4a25.6 25.6 0 0 0 25.6-25.6V0h409.6v76.8a25.6 25.6 0 0 0 20.992 25.1904L844.8 102.4h102.4a25.6 25.6 0 0 0 25.6-25.6V0h204.8a51.2 51.2 0 0 1 51.2 51.2v921.6a51.2 51.2 0 0 1-51.2 51.2H51.2a51.2 51.2 0 0 1-51.2-51.2V51.2a51.2 51.2 0 0 1 51.2-51.2h204.8z m281.6 256h-409.6a25.6 25.6 0 0 0-25.6 25.6v614.4a25.6 25.6 0 0 0 25.6 25.6h409.6a25.6 25.6 0 0 0 25.6-25.6v-614.4a25.6 25.6 0 0 0-25.6-25.6z m563.2 0h-409.6a25.6 25.6 0 0 0-25.6 25.6v614.4a25.6 25.6 0 0 0 25.6 25.6h409.6a25.6 25.6 0 0 0 25.6-25.6v-614.4a25.6 25.6 0 0 0-25.6-25.6z" fill="#1296db" p-id="4779"></path></svg>